<?xml version="1.0" standalone="no"?><!DOCTYPE svg PUBLIC "-//W3C//DTD SVG 1.1//EN" "http://www.w3.org/Graphics/SVG/1.1/DTD/svg11.dtd"><svg t="1645869796763" class="icon" viewBox="0 0 1024 1024" version="1.1" xmlns="http://www.w3.org/2000/svg" p-id="3141" xmlns:xlink="http://www.w3.org/1999/xlink" width="200" height="200"><defs><style type="text/css"></style></defs><path d="M850.321 453.33c-17.132-36.886-31.9-68.737-31.555-119.81l0.72-104.956L715.009 257.3c-27.035 7.455-51.391 18.165-72.694 31.796-1.326-27.345-1.297-57.861-1.268-92.076l0.058-128.851-110.209 40.168C400.507 155.822 334.521 259.358 302.133 337.47l-27.063 13.464C182.438 397 140.981 506.545 140.981 594.671c0 106.928 48.372 203.153 125.081 269.324l0.371 0.992 6.622 5.035c0.719 0.547 1.442 1.074 2.162 1.615 64.891 52.458 148.416 84.076 239.444 84.076 206.048 0 373.691-161.981 373.691-361.043 0-59.417-21.075-104.76-38.031-141.34zM536.165 636.772c62.444 9.194 108.567 30.07 137.357 62.269 28.444 31.755 41.111 74.774 38.665 131.258-34.75 26.829-110.582 67.694-201.041 67.694-67.483 0-132.663-22.519-193.871-66.958-2.648-17.941 3.858-51.239 39.068-93.132 25.969 13.672 51.246 20.584 75.372 20.584 26.4 0 43.789-8.386 51.188-12.852 24.07-11.279 58.128-45.564 53.262-108.863z m232.25 137.556c-6.42-44.622-23.224-82.314-50.269-112.548-45.028-50.308-117.665-79.196-215.866-85.859l-41.861-2.837 11.4 38.987c18.771 64.258-11.861 80.935-14.653 82.312l-5.557 2.963c-0.259 0.166-6.938 4.172-19.894 4.172-18.57 0-40.853-8.262-64.375-23.909l-20.757-13.812-17.36 17.692c-36.51 37.238-55.221 70.585-64.136 98.204-40.829-51.292-65.146-115.46-65.146-185.022 0-47.791 15.906-100.853 41.515-138.476 0 0 34.159-47.708 48.755-71.672 3.669 60.482 39.498 89.964 41.183 94.682 0.633-11.247 30.331-204.606 159.194-287.332l90.803-58.333 0.749 105.4c0.576 79.141 5.354 134.303 28.158 182.107v-0.014c10.275-33.798 30.544-61.254 60.227-81.588l78.31-53.632 14.105 91.742c6.163 40.029 20.096 70.044 33.57 99.072 16.179 34.883 32.878 70.865 32.878 118.044 0.003 67.157-22.665 129.288-60.973 179.657z" fill="#F29600" p-id="3142"></path><path d="M331.44 479.701c0.063-0.112 0.03-0.289-0.044-0.496-0.022 0.415-0.007 0.591 0.044 0.496z" fill="#F29600" p-id="3143"></path></svg>